# xmcd
#
# Track frame offsets:
#	150
#	11902
#	23467
#	37742
#	55600
#	68255
#	83167
#	96730
#	111290
#	125840
#	140015
#	152987
#	168520
#	184010
#	199015
#	210665
#	223270
#	239727
#
# Disc length: 3398 seconds
#
# Revision: 1
# Processed by: cddbd v1.5.2PL0 Copyright (c) Steve Scherf et al.
# Submitted via: audiograbber 1.83.01
#
DISCID=040d4412
DTITLE=Various Artist - CDX 39 August 1992
DYEAR=1992
DGENRE=Country
TTITLE0=The Wood Brothers - Al;cohol Of Fame
TTITLE1=Sammy Kershaw - Anywhere But Here
TTITLE2=Mark Chesnutt - Bubba Shot The Jukebox
TTITLE3=Steve Wariner - Crash Course In The Blues
TTITLE4=Jo-El Sonnier - Hello Happiness Again
TTITLE5=Cleve Francis - How Can I Hold You
TTITLE6=John Doe - I Will Always Love You
TTITLE7=Corbin/Hanner - Just Another Hill
TTITLE8=John Michael Montgomery - Life's A Dance
TTITLE9=Deanna Cox - Never Gonna Be Your Fool Again
TTITLE10=Alison Krauss and Union Station - New Fool
TTITLE11=Mary Chapin-Carpenter with Joe Diffie - Not Too Much To Ask
TTITLE12=Marty Stuart - Now That's Country
TTITLE13=Tracy Lawrence - Somebody Paints The Wall
TTITLE14=Jeff Knight - Someone Like You
TTITLE15=Libby Hurley - The Beginnings Of The End Of The Line
TTITLE16=Lorrie Morgan - Watch Me
TTITLE17=Clinton Gregory - Who Needs It
EXTD=
EXTT0=
EXTT1=
EXTT2=
EXTT3=
EXTT4=
EXTT5=
EXTT6=
EXTT7=
EXTT8=
EXTT9=
EXTT10=
EXTT11=
EXTT12=
EXTT13=
EXTT14=
EXTT15=
EXTT16=
EXTT17=
PLAYORDER=
